{"title":"Amy Schumer - Mostly Sex Stuff (2012).mp4","uid":8353439,"size":145810008,"categoryP":"video","categoryS":"tv_shows","magnet":"?xt=urn:btih:0de90dae1977182b142f2c18aac770c618260394&amp;dn=Amy+Schumer+-+Mostly+Sex+Stuff+%282012%29.mp4&amp;tr=udp%3A%2F%2Ftracker.openbittorrent.com%3A80&amp;tr=udp%3A%2F%2Fopen.demonii.com%3A1337&amp;tr=udp%3A%2F%2Ftracker.coppersurfer.tk%3A6969&amp;tr=udp%3A%2F%2Fexodus.desync.com%3A6969","seeders":36,"leechers":3,"uploader":"yousef86","files":-1,"time":1365417838,"description":"The cussing has been censored.\n------------------------------\n\nGeneral\n=======\nComplete name : Amy Schumer - Mostly Sex Stuff (2012).mp4\nFormat : MPEG-4\nFormat profile : Base Media / Version 2\nCodec ID : mp42\nFile size : 139 MiB\nDuration : 41mn 17s\nOverall bit rate mode : Variable\nOverall bit rate : 471 Kbps\nMovie name : Amy Schumer: Mostly Sex Stuff\nPerformer : Amy Schumer\nEncoded date : UTC 2013-03-31 07:32:17\nTagged date : UTC 2013-03-31 07:32:17\n\nVideo\n=====\nID : 1\nFormat : AVC\nFormat/Info : Advanced Video Codec\nFormat profile : &lt;a class=&quot;__cf_email__&quot; href=&quot;/cdn-cgi/l/email-protection&quot; data-cfemail=&quot;4f0d2e3c2a2326212a0f037c617f&quot;&gt;[email&amp;#160;protected]&lt;/a&gt;&lt;script cf-hash='f9e31' type=&quot;text/javascript&quot;&gt;\n/* &lt;![CDATA[ */!function(){try{var t=&quot;currentScript&quot;in document?document.currentScript:function(){for(var t=document.getElementsByTagName(&quot;script&quot;),e=t.length;e--;)if(t[e].getAttribute(&quot;cf-hash&quot;))return t[e]}();if(t&amp;&amp;t.previousSibling){var e,r,n,i,c=t.previousSibling,a=c.getAttribute(&quot;data-cfemail&quot;);if(a){for(e=&quot;&quot;,r=parseInt(a.substr(0,2),16),n=2;a.length-n;n+=2)i=parseInt(a.substr(n,2),16)^r,e+=String.fromCharCode(i);e=document.createTextNode(e),c.parentNode.replaceChild(e,c)}}}catch(u){}}();/* ]]&gt; */&lt;/script&gt;\nFormat settings, CABAC : No\nFormat settings, ReFrames : 1 frame\nFormat settings, GOP : M=1, N=60\nCodec ID : avc1\nCodec ID/Info : Advanced Video Coding\nDuration : 41mn 17s\nBit rate : 372 Kbps\nMaximum bit rate : 842 Kbps\nWidth : 638 pixels\nHeight : 360 pixels\nDisplay aspect ratio : 16:9\nFrame rate mode : Constant\nFrame rate : 29.970 fps\nColor space : YUV\nChroma subsampling : 4:2:0\nBit depth : 8 bits\nScan type : Progressive\nBits/(Pixel*Frame) : 0.054\nStream size : 110 MiB (79%)\nTagged date : UTC 2013-03-31 07:34:10\n\nAudio\n=====\nID : 2\nFormat : AAC\nFormat/Info : Advanced Audio Codec\nFormat profile : LC\nCodec ID : 40\nDuration : 41mn 17s\nBit rate mode : Variable\nBit rate : 96.0 Kbps\nMaximum bit rate : 106 Kbps\nChannel(s) : 2 channels\nChannel positions : Front: L R\nSampling rate : 44.1 KHz\nCompression mode : Lossy\nStream size : 28.4 MiB (20%)\nTitle : IsoMedia File Produced by Google, 5-11-2011\nEncoded date : UTC 2013-03-31 07:33:18\nTagged date : UTC 2013-03-31 07:34:10","torrent":{"xt":"urn:btih:0de90dae1977182b142f2c18aac770c618260394","amp;dn":"Amy+Schumer+-+Mostly+Sex+Stuff+%282012%29.mp4","amp;tr":["udp%3A%2F%2Ftracker.openbittorrent.com%3A80","udp%3A%2F%2Fopen.demonii.com%3A1337","udp%3A%2F%2Ftracker.coppersurfer.tk%3A6969","udp%3A%2F%2Fexodus.desync.com%3A6969"],"infoHash":"0de90dae1977182b142f2c18aac770c618260394","infoHashBuffer":{"type":"Buffer","data":[13,233,13,174,25,119,24,43,20,47,44,24,170,199,112,198,24,38,3,148]},"announce":[],"urlList":[]}}